<?xml version="1.0" encoding="UTF-8" standalone="no"?>
<!-- Created with Inkscape (http://www.inkscape.org/) -->

<svg
   width="89.999992mm"
   height="90mm"
   viewBox="0 0 89.999992 90"
   version="1.1"
   id="svg1"
   xmlns="http://www.w3.org/2000/svg"
   xmlns:svg="http://www.w3.org/2000/svg">
  <defs
     id="defs1" />
  <g
     id="layer1"
     transform="translate(-58.174261,-90.860524)">
    <g
       id="g7247"
       transform="matrix(0.75671713,0,0,0.75671713,199.82928,55.157495)"
       style="display:inline">
      <g
         id="g6585"
         transform="translate(2.7971721,-116.00834)">
        <circle
           style="fill:#82ac46;fill-opacity:1;stroke:none;stroke-width:0.127703;stroke-miterlimit:4;stroke-dasharray:none;stroke-opacity:0.818548;paint-order:normal"
           id="circle5415"
           cx="-130.52657"
           cy="222.65721"
           r="59.4674" />
        <path
           id="path5419"
           style="fill:#f2f2f2;fill-opacity:1;stroke:none;stroke-width:0;stroke-miterlimit:4;stroke-dasharray:none;stroke-opacity:0.818548;paint-order:normal"
           d="m -121.20426,198.87927 c -11.37044,7.34722 -32.95486,23.82687 -30.02919,39.6251 2.92559,15.79823 19.30894,22.81963 32.7667,14.04283 13.45776,-8.77683 10.49364,-35.74579 7.96254,-49.0822 -1.56526,-8.24748 -3.6493,-9.14174 -10.70005,-4.58573 z m -10.83313,-9.93549 c -1.73864,0.003 -3.47362,1.74782 -5.80947,5.23514 -5.84832,8.73125 -15.16833,24.95171 -14.86514,38.01784 0.1839,-13.93597 17.51486,-27.88383 28.38688,-35.17834 -0.65233,-1.02021 -1.28519,-1.98337 -1.88005,-2.86321 -2.3509,-3.47722 -4.09359,-5.21486 -5.83222,-5.21143 z" />
      </g>
    </g>
  </g>
</svg>
